<svg aria-hidden="true" style="width:0;height:0;position:absolute;overflow:hidden" xmlns="http://www.w3.org/2000/svg"><defs><symbol id="icon-burger" viewBox="0 0 32 32"><path stroke-linejoin="round" stroke-linecap="round" stroke-width="2.286" d="M22.667 13.333H4M28 8H4M28 18.667H4M22.667 24H4"/></symbol><symbol id="icon-caret-down" viewBox="0 0 28 32"><path fill="#fff" style="fill:var(--color1,#fff)" d="M5.898 12h16.513l-7.423 8.391c-.221.25-.521.39-.834.39s-.613-.14-.834-.39L5.898 12z"/></symbol><symbol id="icon-logo" viewBox="0 0 32 32"><path fill="#f6f6f6" style="fill:var(--color2,#f6f6f6)" d="m0 0 16.343 16.171L32 32V0H0z"/><path fill="#f6f6f6" style="fill:var(--color2,#f6f6f6)" d="M4.457 4.229 16.4 16.058l11.257 11.486h-23.2V4.23z"/><path fill="#4f2ee8" style="fill:var(--color3,#4f2ee8)" d="M27.733 27.618 15.79 15.789 4.533 4.303h23.2v23.314z"/><path fill="#4f2ee8" style="fill:var(--color3,#4f2ee8)" d="m9.257 9.029 13.6 13.6h-13.6v-13.6z"/><path fill="#f6f6f6" style="fill:var(--color2,#f6f6f6)" d="m9.257 9.029 13.6 13.6v-13.6h-13.6z"/></symbol><symbol id="icon-arrow-back" viewBox="0 0 32 32"><path fill="#fff" style="fill:var(--color1,#fff)" d="M4.5 19.6 15.7 8.367c.133-.133.278-.228.433-.283s.322-.084.5-.084.345.028.5.084.3.149.433.283L28.799 19.6c.311.311.467.7.467 1.167s-.167.867-.5 1.2c-.333.333-.722.5-1.167.5s-.833-.167-1.167-.5l-9.8-9.8-9.8 9.8c-.311.311-.694.467-1.149.467s-.851-.167-1.184-.5-.5-.722-.5-1.167c0-.444.167-.833.5-1.167z"/></symbol><symbol id="icon-arrow-narrow-right" viewBox="0 0 32 32"><path fill="none" stroke="#eac645" style="stroke:var(--color4,#eac645)" stroke-linejoin="round" stroke-linecap="round" stroke-width="3.2" d="M5.333 16h21.333m.001 0-8-8m8 8-8 8"/></symbol><symbol id="icon-user" viewBox="0 0 32 32"><path fill="#4f2ee8" style="fill:var(--color3,#4f2ee8)" d="M5.333 29.333a10.662 10.662 0 0 1 18.208-7.543c2 2 3.124 4.714 3.124 7.543H5.332zm10.667-12c-4.42 0-8-3.58-8-8s3.58-8 8-8 8 3.58 8 8-3.58 8-8 8z"/></symbol><symbol id="icon-trash" viewBox="0 0 32 32"><path fill="none" stroke="#fff" style="stroke:var(--color1,#fff)" stroke-linejoin="round" stroke-linecap="round" stroke-width="2.909" d="M12 4h8M4 8h24m-2.667 0-.935 14.026c-.14 2.104-.21 3.157-.665 3.954a4 4 0 0 1-1.731 1.619c-.826.4-1.881.4-3.99.4h-4.025c-2.109 0-3.163 0-3.99-.4a4.005 4.005 0 0 1-1.731-1.619c-.455-.798-.525-1.85-.665-3.954L6.666 8m6.667 6v6.667M18.667 14v6.667"/></symbol><symbol id="icon-close" viewBox="0 0 32 32"><path stroke-linejoin="round" stroke-linecap="round" stroke-width="3.429" d="M24 8 8 24M8 8l16 16"/></symbol><symbol id="icon-lock" viewBox="0 0 32 32"><path d="M22.667 14.667v-4a6.667 6.667 0 0 0-13.334 0v4M10.4 28h11.2c2.24 0 3.36 0 4.216-.436a3.991 3.991 0 0 0 1.748-1.748C28 24.96 28 23.84 28 21.6v-.533c0-2.24 0-3.36-.436-4.216a3.991 3.991 0 0 0-1.748-1.748c-.856-.436-1.976-.436-4.216-.436H10.4c-2.24 0-3.36 0-4.216.436a3.996 3.996 0 0 0-1.748 1.748C4 17.707 4 18.827 4 21.067v.533c0 2.24 0 3.36.436 4.216a3.991 3.991 0 0 0 1.748 1.748C7.04 28 8.16 28 10.4 28z"/></symbol><symbol id="icon-mail" viewBox="0 0 32 32"><path stroke-linejoin="round" stroke-linecap="round" stroke-width="2.286" d="m28.666 24-8.857-8m-7.619 0-8.857 8M2.667 9.333l10.887 7.621c.882.617 1.322.926 1.802 1.045.423.106.866.106 1.29 0 .479-.12.92-.428 1.802-1.045l10.887-7.621M9.067 26.667h13.867c2.24 0 3.36 0 4.216-.436a3.996 3.996 0 0 0 1.748-1.748c.436-.856.436-1.976.436-4.216v-8.533c0-2.24 0-3.36-.436-4.216A3.991 3.991 0 0 0 27.15 5.77c-.856-.436-1.976-.436-4.216-.436H9.067c-2.24 0-3.36 0-4.216.436a3.991 3.991 0 0 0-1.748 1.748c-.436.856-.436 1.976-.436 4.216v8.533c0 2.24 0 3.36.436 4.216a3.996 3.996 0 0 0 1.748 1.748c.856.436 1.976.436 4.216.436z"/></symbol><symbol id="icon-scroll-up" viewBox="0 0 32 32"><path d="m3.375 14.7 8.4-8.425c.1-.1.208-.17.325-.212A1.1 1.1 0 0 1 12.475 6a1.1 1.1 0 0 1 .375.063.871.871 0 0 1 .325.212L21.6 14.7c.233.233.35.525.35.875s-.125.65-.375.9a1.2 1.2 0 0 1-.875.375 1.2 1.2 0 0 1-.875-.375l-7.35-7.35-7.35 7.35c-.233.233-.52.35-.862.35-.342 0-.638-.125-.888-.375A1.2 1.2 0 0 1 3 15.575a1.2 1.2 0 0 1 .375-.875Z" fill="#fff"/></symbol><symbol id="icon-linkedin" viewBox="0 0 32 32"><path d="m24.005 4.397-16.388.3-.037.001h.002s-.637.046-1.303.426c-.665.38-1.403 1.154-1.603 2.421-.102.647-.141 1.821-.166 3.325s-.026 3.298-.016 5.025c.019 3.438.079 6.578.079 6.605-.021.127-.148.955.019 1.943.091.533.269 1.109.645 1.611.301.401.745.737 1.302.921.032.017.069.03.109.035h.002c.106.03.214.057.328.075 1.383.223 5.441.42 9.476.492 2.017.036 4.006.037 5.599-.017.797-.027 1.494-.068 2.056-.128s.95-.102 1.325-.279c1.965-.932 2.074-3.417 2.074-3.417l.003-.052-.034-15.623c.052-.851-.196-1.669-.764-2.294-.579-.636-1.433-1.068-2.539-1.351a.618.618 0 0 0-.159-.02h-.011.001zm-.087 1.282c.911.242 1.512.58 1.848.95.345.38.478.792.433 1.386a.741.741 0 0 0-.002.049v.001l.001.541a.323.323 0 0 0-.104.031l.002-.001-3.585 1.703a.32.32 0 1 0 .276.577l-.002.001 3.414-1.621.003 1.036-2.229.939a.32.32 0 1 0 .251.589l-.002.001 1.982-.835.028 12.617a4.696 4.696 0 0 1-.449 1.412l-.892-1.099a.32.32 0 1 0-.496.403l1.011 1.246c-.147.16-.317.298-.517.392-.01.005-.398.108-.911.163-.069.007-.164.013-.239.019l-.546-1.198a.321.321 0 0 0-.293-.192h-.014.001a.32.32 0 0 0-.276.458l-.001-.002.449.986a42.93 42.93 0 0 1-1.047.049l-.076.002-.789-1.18a.32.32 0 0 0-.269-.146h-.001a.32.32 0 0 0-.262.503l-.001-.001.564.843c-1.402.03-3.032.027-4.698-.003-.79-.014-1.58-.038-2.361-.063l.113-1.278a.32.32 0 0 0-.318-.353h-.009a.321.321 0 0 0-.311.295v.001l-.116 1.317c-.302-.011-.56-.025-.852-.037l.261-.789a.32.32 0 0 0-.3-.425h-.002a.321.321 0 0 0-.305.222l-.001.002-.318.961c-.307-.014-.635-.025-.925-.04l.24-.814a.32.32 0 0 0-.306-.415h-.009a.322.322 0 0 0-.299.231l-.001.002-.283.96c-.349-.019-.64-.039-.948-.059l.563-1.204a.32.32 0 0 0-.281-.46h-.007a.32.32 0 0 0-.291.187l-.001.002-.67 1.432a39.092 39.092 0 0 1-.902-.074l.357-.395a.32.32 0 0 0-.227-.538h-.007a.322.322 0 0 0-.24.108l-.652.72c-.389-.086-.623-.259-.809-.508-.205-.273-.339-.656-.408-1.058-.137-.804-.009-1.606-.009-1.606a.59.59 0 0 0 .009-.106v-.012.001s-.035-2.109-.06-4.593l1.424-.576a.32.32 0 0 0-.116-.618h-.009a.303.303 0 0 0-.117.026l.002-.001-1.191.481c-.004-.48-.011-.836-.014-1.336-.003-.544-.002-1.09-.003-1.636l1.213.842a.32.32 0 1 0 .367-.525l-.001-.001-1.58-1.097c.001-.423.006-.805.009-1.209l1.691 1.456a.32.32 0 1 0 .418-.484h-.001l-2.102-1.809c.002-.171.002-.368.005-.532.025-1.488.082-2.713.151-3.148.141-.895.563-1.275.972-1.508.408-.233.758-.26.76-.26l5.388-.099.571 2.619a.32.32 0 1 0 .625-.138l.001.002-.544-2.494.875-.016.142 1.499a.32.32 0 1 0 .637-.062v.001l-.137-1.45 3.544-.065-.219 1.297a.32.32 0 0 0 .631.108v-.002l.238-1.415.934-.017-.207.914a.32.32 0 1 0 .623.144v-.002l.242-1.067 2.899-.053zM9.869 7.012a.274.274 0 0 0-.107.043l.001-.001a.288.288 0 1 0 .105-.041h.002zm.989 2.334a.274.274 0 0 0-.107.043l.001-.001a.289.289 0 0 0 .312.484.287.287 0 0 0-.206-.525zm-3.227.027a.274.274 0 0 0-.107.043l.001-.001c-.133.086-.172.264-.086.398s.264.172.397.086a.289.289 0 0 0-.206-.526zm4.559 1.209c-.345.035-.768.219-1.155.53-.193.155-.372.345-.491.581s-.17.526-.094.819c.253.98 1.056 1.449 1.868 1.436.872-.014 1.656-.778 1.519-1.834-.135-1.052-.97-1.599-1.647-1.531zm.064.637c.242-.024.853.236.948.976.095.735-.36 1.104-.894 1.112-.595.009-1.048-.219-1.239-.956-.035-.136-.017-.246.046-.371s.178-.255.32-.369c.285-.229.704-.381.819-.393zm7.567 2.946c-.634.019-1.234.31-1.705.596-.257.156-.277.196-.438.321l-.054-.541a.32.32 0 0 0-.318-.288h-.011.001l-2.126.07a.32.32 0 0 0-.309.309v.001l-.247 7.809v.01a.32.32 0 0 0 .312.32l2.625.064h.008a.32.32 0 0 0 .32-.32v-.009s-.025-1.002-.041-2.085c-.008-.541-.014-1.103-.014-1.568s.01-.85.023-.971c.061-.582.477-.897.938-.967s.908.103 1.084.616c.021.061.08.481.107.972s.042 1.09.05 1.669c.016 1.158.003 2.235.003 2.235v.004c0 .177.143.32.32.32h.002l2.294-.011a.32.32 0 0 0 .318-.316s.014-1.095.005-2.353c-.009-1.258-.037-2.659-.139-3.362-.21-1.442-1.392-2.38-2.734-2.516a1.94 1.94 0 0 0-.277-.009h.003zm-8.76.078h-.011a.32.32 0 0 0-.32.315l-.131 8.078v.006c0 .177.143.32.32.32l.029-.001h-.001l2.596-.228a.32.32 0 0 0 .293-.319v-.008l-.178-7.776a.32.32 0 0 0-.309-.313h-.001l-2.288-.075zm8.782.563.059-.001c.045 0 .09.002.134.007h-.006c1.094.111 1.999.824 2.166 1.971.086.592.124 2.024.133 3.274.008 1.083-.002 1.787-.005 2.026l-1.656.008c.002-.25.011-.927-.003-1.926-.008-.584-.023-1.189-.051-1.695s-.048-.875-.141-1.145c-.277-.805-1.076-1.148-1.785-1.041s-1.387.662-1.479 1.533c-.022.205-.026.567-.026 1.038s.006 1.035.014 1.579c.014.912.029 1.504.035 1.755l-1.969-.047.228-7.188 1.526-.051.079.798a.32.32 0 0 0 .534.204s.336-.305.817-.598c.421-.256.945-.482 1.394-.502zm-8.478.088 1.66.054.164 7.174-1.944.17.12-7.398z"/></symbol><symbol id="icon-github" viewBox="0 0 32 32"><path d="M15.5 1C7.506 1 1 7.506 1 15.5c0 6.324 4.072 11.713 9.729 13.69.08.057.176.092.277.094 1.341.454 2.885.717 4.491.717h.003c7.994 0 14.5-6.506 14.5-14.5s-6.506-14.5-14.5-14.5zm0 1C22.943 2 29 8.057 29 15.5c0 5.83-3.715 10.807-8.9 12.693a2.03 2.03 0 0 1-.1-.566V25c0-1.047-.512-2.188-1.016-2.953 2.775-.469 5.947-1.908 5.947-7.281 0-1.473-.461-2.771-1.369-3.865.199-.656.445-2.041-.242-3.779a.505.505 0 0 0-.313-.293c-.141-.043-1.424-.377-4.088 1.371a13.894 13.894 0 0 0-3.42-.428 13.794 13.794 0 0 0-3.412.428c-2.664-1.75-3.951-1.416-4.09-1.371a.505.505 0 0 0-.313.293c-.689 1.74-.443 3.123-.24 3.779-.912 1.094-1.373 2.393-1.373 3.865 0 5.324 3.115 6.791 5.867 7.279-.346.438-.709 1.004-.869 1.58-.711.197-2.168.203-3.146-1.473-.035-.064-.891-1.584-2.578-1.701-.268.002-.947.045-1.111.564-.182.576.455 1.014.729 1.199.018.012.045.027.063.037.031.016.76.398 1.303 1.766.113.357 1.107 3.051 4.676 2.576.002.395 0 .594-.004.752v.279c0 .162-.049.406-.104.564-5.186-1.887-8.896-6.863-8.896-12.69 0-7.443 6.057-13.5 13.5-13.5zm-.121 1.502a11.49 11.49 0 0 0-5.574 1.506.498.498 0 0 0 .246.934h.001a.489.489 0 0 0 .246-.066 10.542 10.542 0 0 1 6.871-1.242.5.5 0 1 0 .158-.988 11.16 11.16 0 0 0-1.808-.143l-.149.001h.008zm3.949.691a.497.497 0 0 0-.477.501.5.5 0 0 0 .322.467l.003.001c.355.133.707.285 1.051.457a.502.502 0 0 0 .672-.22.504.504 0 0 0-.223-.672 10.382 10.382 0 0 0-1.071-.475l-.079-.026a.515.515 0 0 0-.18-.032h-.018.001zm3.164 3.58c.537 1.58.17 2.725.037 3.049a.503.503 0 0 0 .096.528c.865.947 1.305 2.096 1.305 3.416 0 5.068-3.004 6.086-5.945 6.412a.5.5 0 0 0-.421.344l-.001.004a.498.498 0 0 0 .15.527C18.108 22.391 19 23.858 19 25v2.627c0 .01.002.445.145.869a13.447 13.447 0 0 1-7.295-.002c.145-.426.148-.861.148-.869l.002-.268c.002-.227.006-.533 0-1.359a.506.506 0 0 0-.187-.388l-.001-.001a.505.505 0 0 0-.42-.098c-3.357.732-4.084-1.691-4.111-1.793l-.018-.051c-.48-1.219-1.113-1.84-1.49-2.121.814.287 1.269 1.082 1.281 1.1 1.322 2.264 3.506 2.322 4.648 1.811a.5.5 0 0 0 .291-.384v-.003c.102-.715.887-1.66 1.283-2.008a.498.498 0 0 0 .146-.525.498.498 0 0 0-.418-.348c-2.934-.334-5.934-1.359-5.934-6.424 0-1.318.439-2.469 1.309-3.416a.493.493 0 0 0 .093-.53l.001.003c-.133-.324-.502-1.465.033-3.047.426.014 1.463.195 3.209 1.381a.5.5 0 0 0 .42.067l-.004.001a12.995 12.995 0 0 1 3.367-.453 13.03 13.03 0 0 1 3.373.453.501.501 0 0 0 .414-.068c1.756-1.191 2.793-1.369 3.205-1.383zm-11.804 9.424a.496.496 0 0 0-.494.246l-.5.865a.5.5 0 0 0 .18.682l.002.001a.49.49 0 0 0 .249.066h.001c.184 0 .344-.1.43-.248l.001-.002.5-.865a.499.499 0 0 0-.37-.747zm9.625 0a.503.503 0 0 0-.19.064l.002-.001a.502.502 0 0 0-.182.686l.5.865a.5.5 0 1 0 .863-.502l.001.002-.5-.865a.503.503 0 0 0-.496-.248h.002zm-2.219.975a.497.497 0 0 0-.204.015l.003-.001a.5.5 0 0 0-.354.611l.26.967a.5.5 0 0 0 .482.369.594.594 0 0 0 .135-.016l-.004.001a.501.501 0 0 0 .354-.613l-.258-.965a.506.506 0 0 0-.411-.367h-.003zm-5.186 0a.506.506 0 0 0-.415.364l-.001.004-.258.967a.5.5 0 0 0 .967.258l.26-.967a.5.5 0 0 0-.553-.625zm2.592.328h-.002a.498.498 0 0 0-.498.498V20c0 .277.223.5.5.5h.002a.498.498 0 0 0 .498-.498v-1.004a.498.498 0 0 0-.498-.498H15.5z"/></symbol></defs></svg>