<svg aria-hidden="true" style="position: absolute; width: 0; height: 0; overflow: hidden;" version="1.1" xmlns="http://www.w3.org/2000/svg" xmlns:xlink="http://www.w3.org/1999/xlink">
<defs>
<symbol id="icon-burger" viewBox="0 0 32 32">
<path stroke-linejoin="round" stroke-linecap="round" stroke-miterlimit="4" stroke-width="2.2857" d="M22.667 13.333h-18.667"></path>
<path stroke-linejoin="round" stroke-linecap="round" stroke-miterlimit="4" stroke-width="2.2857" d="M28 8h-24"></path>
<path stroke-linejoin="round" stroke-linecap="round" stroke-miterlimit="4" stroke-width="2.2857" d="M28 18.667h-24"></path>
<path stroke-linejoin="round" stroke-linecap="round" stroke-miterlimit="4" stroke-width="2.2857" d="M22.667 24h-18.667"></path>
</symbol>
<symbol id="icon-caret-down" viewBox="0 0 28 32">
<path fill="#fff" style="fill: var(--color1, #fff)" d="M5.898 12h16.513l-7.423 8.391c-0.221 0.25-0.521 0.39-0.834 0.39s-0.613-0.14-0.834-0.39l-7.422-8.391z"></path>
</symbol>
<symbol id="icon-logo" viewBox="0 0 32 32">
<path fill="#f6f6f6" style="fill: var(--color2, #f6f6f6)" d="M0 0l16.343 16.171 15.657 15.829v-32h-32z"></path>
<path fill="#f6f6f6" style="fill: var(--color2, #f6f6f6)" d="M4.457 4.229l11.943 11.829 11.257 11.486h-23.2v-23.314z"></path>
<path fill="#4f2ee8" style="fill: var(--color3, #4f2ee8)" d="M27.733 27.618l-11.943-11.829-11.257-11.486h23.2v23.314z"></path>
<path fill="#4f2ee8" style="fill: var(--color3, #4f2ee8)" d="M9.257 9.029l13.6 13.6h-13.6v-13.6z"></path>
<path fill="#f6f6f6" style="fill: var(--color2, #f6f6f6)" d="M9.257 9.029l13.6 13.6v-13.6h-13.6z"></path>
</symbol>
<symbol id="icon-arrow-back" viewBox="0 0 32 32">
<path fill="#fff" style="fill: var(--color1, #fff)" d="M4.5 19.6l11.2-11.233c0.133-0.133 0.278-0.228 0.433-0.283s0.322-0.084 0.5-0.084c0.178 0 0.345 0.028 0.5 0.084s0.3 0.149 0.433 0.283l11.233 11.233c0.311 0.311 0.467 0.7 0.467 1.167s-0.167 0.867-0.5 1.2c-0.333 0.333-0.722 0.5-1.167 0.5s-0.833-0.167-1.167-0.5l-9.8-9.8-9.8 9.8c-0.311 0.311-0.694 0.467-1.149 0.467s-0.851-0.167-1.184-0.5-0.5-0.722-0.5-1.167c0-0.444 0.167-0.833 0.5-1.167z"></path>
</symbol>
<symbol id="icon-arrow-narrow-right" viewBox="0 0 32 32">
<path fill="none" stroke="#eac645" style="stroke: var(--color4, #eac645)" stroke-linejoin="round" stroke-linecap="round" stroke-miterlimit="4" stroke-width="3.2" d="M5.333 16h21.333M26.667 16l-8-8M26.667 16l-8 8"></path>
</symbol>
<symbol id="icon-user" viewBox="0 0 32 32">
<path fill="#4f2ee8" style="fill: var(--color3, #4f2ee8)" d="M5.333 29.333c0-2.829 1.124-5.542 3.124-7.543s4.713-3.124 7.542-3.124c2.829 0 5.542 1.124 7.542 3.124s3.124 4.714 3.124 7.543h-21.333zM16 17.333c-4.42 0-8-3.58-8-8s3.58-8 8-8c4.42 0 8 3.58 8 8s-3.58 8-8 8z"></path>
</symbol>
<symbol id="icon-trash" viewBox="0 0 32 32">
<path fill="none" stroke="#fff" style="stroke: var(--color1, #fff)" stroke-linejoin="round" stroke-linecap="round" stroke-miterlimit="4" stroke-width="2.9091" d="M12 4h8M4 8h24M25.333 8l-0.935 14.026c-0.14 2.104-0.21 3.157-0.665 3.954-0.4 0.702-1.004 1.267-1.731 1.619-0.826 0.4-1.881 0.4-3.99 0.4h-4.025c-2.109 0-3.163 0-3.99-0.4-0.727-0.353-1.331-0.917-1.731-1.619-0.455-0.798-0.525-1.85-0.665-3.954l-0.935-14.026M13.333 14v6.667M18.667 14v6.667"></path>
</symbol>
<symbol id="icon-close" viewBox="0 0 32 32">
<path stroke-linejoin="round" stroke-linecap="round" stroke-miterlimit="4" stroke-width="3.4286" d="M24 8l-16 16M8 8l16 16"></path>
</symbol>
<symbol id="icon-lock" viewBox="0 0 32 32">
<path stroke-width="2.2857" d="M22.667 14.667v-4c0-3.682-2.985-6.667-6.667-6.667s-6.667 2.985-6.667 6.667v4M10.4 28h11.2c2.24 0 3.36 0 4.216-0.436 0.753-0.383 1.365-0.995 1.748-1.748 0.436-0.856 0.436-1.976 0.436-4.216v-0.533c0-2.24 0-3.36-0.436-4.216-0.383-0.753-0.995-1.365-1.748-1.748-0.856-0.436-1.976-0.436-4.216-0.436h-11.2c-2.24 0-3.36 0-4.216 0.436-0.753 0.384-1.365 0.995-1.748 1.748-0.436 0.856-0.436 1.976-0.436 4.216v0.533c0 2.24 0 3.36 0.436 4.216 0.383 0.753 0.995 1.365 1.748 1.748 0.856 0.436 1.976 0.436 4.216 0.436z"></path>
</symbol>
<symbol id="icon-mail" viewBox="0 0 32 32">
<path stroke-linejoin="round" stroke-linecap="round" stroke-miterlimit="4" stroke-width="2.2857" d="M28.666 24l-8.857-8M12.19 16l-8.857 8M2.667 9.333l10.886 7.621c0.882 0.617 1.322 0.926 1.802 1.045 0.194 0.050 0.416 0.079 0.645 0.079s0.451-0.029 0.663-0.083l-0.018 0.004c0.479-0.12 0.92-0.428 1.802-1.045l10.887-7.621M9.067 26.667h13.867c2.24 0 3.36 0 4.216-0.436 0.756-0.391 1.357-0.992 1.738-1.726l0.011-0.022c0.436-0.856 0.436-1.976 0.436-4.216v-8.533c0-2.24 0-3.36-0.436-4.216-0.391-0.756-0.992-1.357-1.726-1.737l-0.022-0.011c-0.856-0.436-1.976-0.436-4.216-0.436h-13.867c-2.24 0-3.36 0-4.216 0.436-0.756 0.391-1.357 0.992-1.737 1.726l-0.010 0.022c-0.436 0.856-0.436 1.976-0.436 4.216v8.533c0 2.24 0 3.36 0.436 4.216 0.391 0.756 0.992 1.357 1.726 1.738l0.022 0.011c0.856 0.436 1.976 0.436 4.216 0.436z"></path>
</symbol>
<symbol id="icon-scroll-up" viewBox="0 0 32 32">
<path d="M3.37519 14.7L11.7752 6.275C11.8752 6.175 11.9835 6.10433 12.1002 6.063C12.2169 6.021 12.3419 6 12.4752 6C12.6085 6 12.7335 6.021 12.8502 6.063C12.9669 6.10433 13.0752 6.175 13.1752 6.275L21.6002 14.7C21.8335 14.9333 21.9502 15.225 21.9502 15.575C21.9502 15.925 21.8252 16.225 21.5752 16.475C21.3252 16.725 21.0335 16.85 20.7002 16.85C20.3669 16.85 20.0752 16.725 19.8252 16.475L12.4752 9.125L5.12519 16.475C4.89186 16.7083 4.60453 16.825 4.26319 16.825C3.92119 16.825 3.62519 16.7 3.37519 16.45C3.12519 16.2 3.00019 15.9083 3.00019 15.575C3.00019 15.2417 3.12519 14.95 3.37519 14.7Z" fill="#fff" />
</symbol>
<symbol id="icon-linkedin" viewBox="0 0 32 32">
<path d="M24.005 4.397l-16.388 0.3c-0.013 0-0.025 0.001-0.037 0.001l0.002-0s-0.637 0.046-1.303 0.426c-0.665 0.38-1.403 1.154-1.603 2.421-0.102 0.647-0.141 1.821-0.166 3.325s-0.026 3.298-0.016 5.025c0.019 3.438 0.079 6.578 0.079 6.605-0.021 0.127-0.148 0.955 0.019 1.943 0.091 0.533 0.269 1.109 0.645 1.611 0.301 0.401 0.745 0.737 1.302 0.921 0.032 0.017 0.069 0.030 0.109 0.035l0.002 0c0.106 0.030 0.214 0.057 0.328 0.075 1.383 0.223 5.441 0.42 9.476 0.492 2.017 0.036 4.006 0.037 5.599-0.017 0.797-0.027 1.494-0.068 2.056-0.128s0.95-0.102 1.325-0.279c1.965-0.932 2.074-3.417 2.074-3.417 0.001-0.015 0.002-0.033 0.003-0.052v-0l-0.034-15.623c0.052-0.851-0.196-1.669-0.764-2.294-0.579-0.636-1.433-1.068-2.539-1.351-0.048-0.013-0.103-0.020-0.159-0.020-0.004 0-0.008 0-0.011 0h0.001zM23.918 5.679c0.911 0.242 1.512 0.58 1.848 0.95 0.345 0.38 0.478 0.792 0.433 1.386-0.001 0.015-0.002 0.032-0.002 0.049 0 0 0 0.001 0 0.001v-0l0.001 0.541c-0.038 0.005-0.072 0.015-0.104 0.031l0.002-0.001-3.585 1.703c-0.112 0.051-0.189 0.163-0.189 0.292 0 0.177 0.143 0.32 0.32 0.32 0.052 0 0.101-0.012 0.145-0.035l-0.002 0.001 3.414-1.621 0.003 1.036-2.229 0.939c-0.117 0.050-0.197 0.163-0.197 0.295 0 0.177 0.143 0.32 0.32 0.32 0.045 0 0.088-0.009 0.128-0.026l-0.002 0.001 1.982-0.835 0.028 12.617c-0.001 0.009-0.096 0.742-0.449 1.412l-0.892-1.099c-0.059-0.074-0.149-0.122-0.251-0.122h-0c-0 0-0 0-0 0-0.177 0-0.32 0.143-0.32 0.32 0 0.078 0.028 0.15 0.075 0.205l-0-0 1.011 1.246c-0.147 0.16-0.317 0.298-0.517 0.392-0.010 0.005-0.398 0.108-0.911 0.163-0.069 0.007-0.164 0.013-0.239 0.019l-0.546-1.198c-0.051-0.114-0.163-0.192-0.293-0.192-0.005 0-0.009 0-0.014 0l0.001-0c-0.171 0.007-0.307 0.148-0.307 0.32 0 0.050 0.011 0.097 0.031 0.138l-0.001-0.002 0.449 0.986c-0.322 0.019-0.671 0.036-1.047 0.049-0.024 0.001-0.052 0.001-0.076 0.002l-0.789-1.18c-0.058-0.089-0.157-0.146-0.269-0.146-0 0-0.001 0-0.001 0h0c-0.176 0-0.319 0.144-0.319 0.32 0 0.068 0.021 0.131 0.057 0.183l-0.001-0.001 0.564 0.843c-1.402 0.030-3.032 0.027-4.698-0.003-0.79-0.014-1.58-0.038-2.361-0.063l0.113-1.278c0.001-0.010 0.002-0.021 0.002-0.033 0-0.177-0.143-0.32-0.32-0.32-0.003 0-0.006 0-0.009 0h0c-0.165 0.005-0.298 0.133-0.311 0.295l-0 0.001-0.116 1.317c-0.302-0.011-0.56-0.025-0.852-0.037l0.261-0.789c0.011-0.031 0.018-0.067 0.018-0.105 0-0.176-0.142-0.319-0.318-0.32h-0c-0.001 0-0.001 0-0.002 0-0.142 0-0.263 0.093-0.305 0.222l-0.001 0.002-0.318 0.961c-0.307-0.014-0.635-0.025-0.925-0.040l0.24-0.814c0.009-0.028 0.014-0.061 0.014-0.095 0-0.177-0.143-0.32-0.32-0.32-0.003 0-0.006 0-0.009 0h0c-0.142 0.004-0.261 0.101-0.299 0.231l-0.001 0.002-0.283 0.96c-0.349-0.019-0.64-0.039-0.948-0.059l0.563-1.204c0.020-0.041 0.032-0.089 0.032-0.14 0-0.174-0.139-0.316-0.313-0.32h-0c-0.002-0-0.004-0-0.007-0-0.129 0-0.241 0.077-0.291 0.187l-0.001 0.002-0.67 1.432c-0.336-0.025-0.651-0.049-0.902-0.074l0.357-0.395c0.053-0.057 0.086-0.134 0.086-0.218 0-0.174-0.14-0.316-0.313-0.32h-0c-0.002-0-0.005-0-0.007-0-0.095 0-0.181 0.042-0.24 0.108l-0 0-0.652 0.72c-0.389-0.086-0.623-0.259-0.809-0.508-0.205-0.273-0.339-0.656-0.408-1.058-0.137-0.804-0.009-1.606-0.009-1.606 0.006-0.032 0.009-0.069 0.009-0.106 0-0.004-0-0.008-0-0.012v0.001s-0.035-2.109-0.060-4.593l1.424-0.576c0.12-0.048 0.204-0.163 0.204-0.298 0-0.177-0.143-0.32-0.32-0.32-0.003 0-0.006 0-0.009 0h0c-0.042 0.001-0.081 0.010-0.117 0.026l0.002-0.001-1.191 0.481c-0.004-0.48-0.011-0.836-0.014-1.336-0.003-0.544-0.002-1.090-0.003-1.636l1.213 0.842c0.052 0.038 0.117 0.061 0.188 0.061 0.177 0 0.32-0.143 0.32-0.32 0-0.111-0.056-0.208-0.141-0.266l-0.001-0.001-1.58-1.097c0.001-0.423 0.006-0.805 0.009-1.209l1.691 1.456c0.056 0.051 0.131 0.082 0.213 0.082 0.177 0 0.32-0.143 0.32-0.32 0-0.099-0.045-0.187-0.115-0.246l-0.001-0-2.102-1.809c0.002-0.171 0.002-0.368 0.005-0.532 0.025-1.488 0.082-2.713 0.151-3.148 0.141-0.895 0.563-1.275 0.972-1.508 0.408-0.233 0.758-0.26 0.76-0.26l5.388-0.099 0.571 2.619c0.028 0.15 0.158 0.263 0.315 0.263 0.177 0 0.32-0.143 0.32-0.32 0-0.028-0.004-0.055-0.010-0.081l0.001 0.002-0.544-2.494 0.875-0.016 0.142 1.499c0.014 0.165 0.152 0.293 0.319 0.293 0.177 0 0.32-0.143 0.32-0.32 0-0.012-0.001-0.024-0.002-0.035l0 0.001-0.137-1.45 3.544-0.065-0.219 1.297c-0.003 0.015-0.004 0.033-0.004 0.051 0 0.177 0.143 0.32 0.32 0.32 0.157 0 0.288-0.113 0.315-0.263l0-0.002 0.238-1.415 0.934-0.017-0.207 0.914c-0.007 0.025-0.011 0.053-0.011 0.082 0 0.177 0.143 0.32 0.32 0.32 0.156 0 0.285-0.111 0.314-0.258l0-0.002 0.242-1.067 2.899-0.053zM9.869 7.012c-0.040 0.007-0.076 0.022-0.107 0.043l0.001-0.001c-0.133 0.086-0.172 0.264-0.086 0.397s0.265 0.172 0.398 0.086c0.133-0.086 0.172-0.264 0.086-0.397-0.052-0.080-0.141-0.132-0.242-0.132-0.018 0-0.035 0.002-0.051 0.005l0.002-0zM10.858 9.346c-0.040 0.007-0.076 0.022-0.107 0.043l0.001-0.001c-0.133 0.086-0.172 0.264-0.086 0.398s0.264 0.172 0.398 0.086c0.133-0.086 0.172-0.264 0.086-0.398-0.065-0.1-0.181-0.147-0.292-0.127zM7.631 9.373c-0.040 0.007-0.076 0.022-0.107 0.043l0.001-0.001c-0.133 0.086-0.172 0.264-0.086 0.398s0.264 0.172 0.397 0.086c0.133-0.086 0.172-0.265 0.086-0.398-0.065-0.1-0.181-0.147-0.292-0.128zM12.19 10.582c-0.345 0.035-0.768 0.219-1.155 0.53-0.193 0.155-0.372 0.345-0.491 0.581s-0.17 0.526-0.094 0.819c0.253 0.98 1.056 1.449 1.868 1.436 0.872-0.014 1.656-0.778 1.519-1.834-0.135-1.052-0.97-1.599-1.647-1.531zM12.254 11.219c0.242-0.024 0.853 0.236 0.948 0.976 0.095 0.735-0.36 1.104-0.894 1.112-0.595 0.009-1.048-0.219-1.239-0.956-0.035-0.136-0.017-0.246 0.046-0.371s0.178-0.255 0.32-0.369c0.285-0.229 0.704-0.381 0.819-0.393zM19.821 14.165c-0.634 0.019-1.234 0.31-1.705 0.596-0.257 0.156-0.277 0.196-0.438 0.321l-0.054-0.541c-0.017-0.163-0.153-0.288-0.318-0.288-0.004 0-0.007 0-0.011 0h0.001l-2.126 0.070c-0.169 0.006-0.304 0.141-0.309 0.309v0.001l-0.247 7.809c-0 0.003-0 0.007-0 0.010 0 0.174 0.139 0.316 0.312 0.32h0l2.625 0.064c0.002 0 0.005 0 0.008 0 0.177 0 0.32-0.143 0.32-0.32 0-0.003-0-0.006-0-0.009v0s-0.025-1.002-0.041-2.085c-0.008-0.541-0.014-1.103-0.014-1.568s0.010-0.85 0.023-0.971c0.061-0.582 0.477-0.897 0.938-0.967s0.908 0.103 1.084 0.616c0.021 0.061 0.080 0.481 0.107 0.972s0.042 1.090 0.050 1.669c0.016 1.158 0.003 2.235 0.003 2.235 0 0.001-0 0.002-0 0.004 0 0.177 0.143 0.32 0.32 0.32 0.001 0 0.001 0 0.002 0l2.294-0.011c0.175-0.001 0.316-0.142 0.318-0.316v-0s0.014-1.095 0.005-2.353c-0.009-1.258-0.037-2.659-0.139-3.362-0.21-1.442-1.392-2.38-2.734-2.516-0.063-0.007-0.135-0.010-0.209-0.010-0.023 0-0.046 0-0.068 0.001l0.003-0zM11.061 14.243c-0.003-0-0.007-0-0.011-0-0.175 0-0.317 0.141-0.32 0.315v0l-0.131 8.078c-0 0.002-0 0.004-0 0.006 0 0.177 0.143 0.32 0.32 0.32 0.010 0 0.020-0 0.029-0.001l-0.001 0 2.596-0.228c0.165-0.015 0.293-0.152 0.293-0.319 0-0.003-0-0.005-0-0.008v0l-0.178-7.776c-0.004-0.17-0.14-0.307-0.309-0.313h-0.001l-2.288-0.075zM19.843 14.806c0.018-0.001 0.038-0.001 0.059-0.001 0.045 0 0.090 0.002 0.134 0.007l-0.006-0c1.094 0.111 1.999 0.824 2.166 1.971 0.086 0.592 0.124 2.024 0.133 3.274 0.008 1.083-0.002 1.787-0.005 2.026l-1.656 0.008c0.002-0.25 0.011-0.927-0.003-1.926-0.008-0.584-0.023-1.189-0.051-1.695s-0.048-0.875-0.141-1.145c-0.277-0.805-1.076-1.148-1.785-1.041s-1.387 0.662-1.479 1.533c-0.022 0.205-0.026 0.567-0.026 1.038s0.006 1.035 0.014 1.579c0.014 0.912 0.029 1.504 0.035 1.755l-1.969-0.047 0.228-7.188 1.526-0.051 0.079 0.798c0.017 0.163 0.153 0.288 0.318 0.288 0.083 0 0.159-0.032 0.216-0.084l-0 0s0.336-0.305 0.817-0.598c0.421-0.256 0.945-0.482 1.394-0.502zM11.365 14.894l1.66 0.054 0.164 7.174-1.944 0.17 0.12-7.398z"></path>
</symbol>
<symbol id="icon-github" viewBox="0 0 32 32">
<path d="M15.5 1c-7.994 0-14.5 6.506-14.5 14.5 0 6.324 4.072 11.713 9.729 13.69 0.080 0.057 0.176 0.092 0.277 0.094 1.341 0.454 2.885 0.717 4.491 0.717 0.001 0 0.002 0 0.003 0h-0c7.994 0 14.5-6.506 14.5-14.5s-6.506-14.5-14.5-14.5zM15.5 2c7.443 0 13.5 6.057 13.5 13.5 0 5.83-3.715 10.807-8.9 12.693-0.055-0.162-0.1-0.402-0.1-0.566v-2.627c0-1.047-0.512-2.188-1.016-2.953 2.775-0.469 5.947-1.908 5.947-7.281 0-1.473-0.461-2.771-1.369-3.865 0.199-0.656 0.445-2.041-0.242-3.779-0.055-0.139-0.17-0.246-0.313-0.293-0.141-0.043-1.424-0.377-4.088 1.371-1.084-0.279-2.23-0.424-3.42-0.428-1.184 0.004-2.332 0.148-3.412 0.428-2.664-1.75-3.951-1.416-4.090-1.371-0.143 0.047-0.258 0.154-0.313 0.293-0.689 1.74-0.443 3.123-0.24 3.779-0.912 1.094-1.373 2.393-1.373 3.865 0 5.324 3.115 6.791 5.867 7.279-0.346 0.438-0.709 1.004-0.869 1.58-0.711 0.197-2.168 0.203-3.146-1.473-0.035-0.064-0.891-1.584-2.578-1.701-0.268 0.002-0.947 0.045-1.111 0.564-0.182 0.576 0.455 1.014 0.729 1.199 0.018 0.012 0.045 0.027 0.063 0.037 0.031 0.016 0.76 0.398 1.303 1.766 0.113 0.357 1.107 3.051 4.676 2.576 0.002 0.395 0 0.594-0.004 0.752v0.279c0 0.162-0.049 0.406-0.104 0.564-5.186-1.887-8.896-6.863-8.896-12.69 0-7.443 6.057-13.5 13.5-13.5zM15.379 3.502c-1.949 0.021-3.877 0.535-5.574 1.506-0.24 0.135-0.324 0.441-0.188 0.68 0.087 0.153 0.249 0.254 0.434 0.254 0 0 0.001 0 0.001 0h-0c0.084 0 0.168-0.021 0.246-0.066 2.068-1.18 4.51-1.621 6.871-1.242 0.271 0.045 0.527-0.141 0.572-0.414 0.043-0.273-0.143-0.529-0.414-0.574-0.543-0.091-1.169-0.143-1.808-0.143-0.050 0-0.099 0-0.149 0.001l0.008-0zM19.328 4.193c-0.193 0.008-0.375 0.131-0.445 0.324-0.020 0.052-0.032 0.113-0.032 0.177 0 0.213 0.134 0.395 0.322 0.467l0.003 0.001c0.355 0.133 0.707 0.285 1.051 0.457 0.065 0.034 0.143 0.055 0.225 0.055v0c0.182 0 0.357-0.1 0.447-0.275 0.123-0.244 0.023-0.547-0.223-0.672-0.303-0.158-0.682-0.327-1.071-0.475l-0.079-0.026c-0.053-0.020-0.115-0.032-0.18-0.032-0.006 0-0.012 0-0.018 0l0.001-0zM22.492 7.773c0.537 1.58 0.17 2.725 0.037 3.049-0.023 0.056-0.036 0.12-0.036 0.188 0 0.131 0.050 0.25 0.132 0.34l-0-0c0.865 0.947 1.305 2.096 1.305 3.416 0 5.068-3.004 6.086-5.945 6.412-0.2 0.022-0.362 0.16-0.421 0.344l-0.001 0.004c-0.061 0.189 0 0.396 0.15 0.527 0.395 0.338 1.287 1.805 1.287 2.947v2.627c0 0.010 0.002 0.445 0.145 0.869-1.16 0.326-2.381 0.504-3.645 0.504-1.266 0-2.488-0.18-3.65-0.506 0.145-0.426 0.148-0.861 0.148-0.869l0.002-0.268c0.002-0.227 0.006-0.533 0-1.359-0.002-0.157-0.074-0.296-0.187-0.388l-0.001-0.001c-0.117-0.094-0.271-0.129-0.42-0.098-3.357 0.732-4.084-1.691-4.111-1.793-0.006-0.018-0.012-0.033-0.018-0.051-0.48-1.219-1.113-1.84-1.49-2.121 0.814 0.287 1.269 1.082 1.281 1.1 1.322 2.264 3.506 2.322 4.648 1.811 0.155-0.070 0.266-0.213 0.291-0.384l0-0.003c0.102-0.715 0.887-1.66 1.283-2.008 0.148-0.131 0.207-0.338 0.146-0.525-0.059-0.189-0.223-0.326-0.418-0.348-2.934-0.334-5.934-1.359-5.934-6.424 0-1.318 0.439-2.469 1.309-3.416 0.082-0.088 0.132-0.207 0.132-0.337 0-0.069-0.014-0.134-0.039-0.193l0.001 0.003c-0.133-0.324-0.502-1.465 0.033-3.047 0.426 0.014 1.463 0.195 3.209 1.381 0.079 0.054 0.177 0.086 0.283 0.086 0.047 0 0.093-0.007 0.137-0.019l-0.004 0.001c1.045-0.291 2.211-0.447 3.367-0.453 1.16 0.006 2.326 0.162 3.373 0.453 0.141 0.039 0.293 0.014 0.414-0.068 1.756-1.191 2.793-1.369 3.205-1.383zM10.688 17.197c-0.195-0.023-0.393 0.066-0.494 0.246l-0.5 0.865c-0.042 0.072-0.067 0.159-0.067 0.251 0 0.184 0.099 0.344 0.247 0.431l0.002 0.001c0.071 0.042 0.157 0.066 0.249 0.066 0 0 0.001 0 0.001 0h-0c0 0 0 0 0 0 0.184 0 0.344-0.1 0.43-0.248l0.001-0.002 0.5-0.865c0.139-0.238 0.059-0.545-0.182-0.684-0.060-0.033-0.123-0.055-0.188-0.063zM20.313 17.197c-0.070 0.009-0.133 0.031-0.19 0.064l0.002-0.001c-0.24 0.139-0.32 0.445-0.182 0.686l0.5 0.865c0.087 0.15 0.248 0.25 0.432 0.25 0 0 0 0 0 0v0c0.086 0 0.172-0.023 0.25-0.068 0.15-0.087 0.25-0.248 0.25-0.431 0-0.092-0.025-0.179-0.069-0.253l0.001 0.002-0.5-0.865c-0.088-0.151-0.25-0.252-0.434-0.252-0.021 0-0.042 0.001-0.062 0.004l0.002-0zM18.094 18.172c-0.021-0.003-0.045-0.005-0.069-0.005-0.047 0-0.092 0.007-0.135 0.020l0.003-0.001c-0.266 0.070-0.424 0.344-0.354 0.611l0.26 0.967c0.059 0.214 0.253 0.369 0.482 0.369v0c0.047-0 0.092-0.006 0.135-0.016l-0.004 0.001c0.266-0.072 0.426-0.346 0.354-0.613l-0.258-0.965c-0.053-0.193-0.214-0.337-0.411-0.367l-0.003-0zM12.908 18.172c-0.201 0.029-0.362 0.174-0.415 0.364l-0.001 0.004-0.258 0.967c-0.072 0.266 0.088 0.539 0.354 0.611 0.043 0.012 0.086 0.016 0.131 0.016 0.219 0 0.422-0.146 0.482-0.369l0.26-0.967c0.070-0.266-0.088-0.541-0.354-0.611-0.068-0.020-0.135-0.021-0.199-0.014zM15.5 18.5c-0 0-0.001 0-0.002 0-0.275 0-0.498 0.223-0.498 0.498 0 0.001 0 0.001 0 0.002v-0 1c0 0.277 0.223 0.5 0.5 0.5 0 0 0.001 0 0.002 0 0.275 0 0.498-0.223 0.498-0.498 0-0.001 0-0.001 0-0.002v0-1c0-0 0-0.001 0-0.002 0-0.275-0.223-0.498-0.498-0.498-0.001 0-0.001 0-0.002 0h0z"></path>
</symbol>
</defs>
</svg>
